<svg id="Capa_1" enable-background="new 0 0 512 512" height="512" viewBox="0 0 512 512" width="512" xmlns="http://www.w3.org/2000/svg"><g><g><path d="m494.5 36.157h-353.5c-4.142 0-7.5 3.358-7.5 7.5s3.358 7.5 7.5 7.5h353.5c1.378 0 2.5 1.122 2.5 2.5v313.138h-482v-313.138c0-1.378 1.122-2.5 2.5-2.5h88.5c4.142 0 7.5-3.358 7.5-7.5s-3.358-7.5-7.5-7.5h-88.5c-9.649 0-17.5 7.851-17.5 17.5v404.686c0 9.649 7.851 17.5 17.5 17.5h477c9.649 0 17.5-7.851 17.5-17.5v-404.686c0-9.649-7.851-17.5-17.5-17.5zm2.5 422.186c0 1.378-1.122 2.5-2.5 2.5h-477c-1.378 0-2.5-1.122-2.5-2.5v-76.548h482z"/><path d="m34.444 83.102v251.749c0 6.893 5.607 12.5 12.5 12.5h418.111c6.893 0 12.5-5.607 12.5-12.5v-251.749c0-6.893-5.607-12.5-12.5-12.5h-418.111c-6.892 0-12.5 5.607-12.5 12.5zm15 2.5h413.111v246.749h-413.111z"/><path d="m326.474 198.364c.753 4.073 4.662 6.761 8.739 6.011 4.073-.753 6.764-4.666 6.011-8.739-7.593-41.048-43.435-70.842-85.224-70.842-47.803 0-86.694 38.891-86.694 86.694s38.891 86.694 86.694 86.694c39.188 0 73.624-26.418 83.742-64.245 1.07-4.001-1.306-8.113-5.307-9.183-3.999-1.071-8.113 1.305-9.183 5.307-8.366 31.277-36.843 53.121-69.251 53.121-39.532 0-71.694-32.162-71.694-71.694s32.162-71.694 71.694-71.694c34.557 0 64.195 24.632 70.473 58.57z"/><path d="m235.427 172.43c-3.279-1.64-7.098-1.468-10.216.46-3.118 1.927-4.979 5.266-4.979 8.932v59.333c0 3.666 1.861 7.004 4.979 8.932 1.697 1.049 3.602 1.578 5.514 1.578 1.601 0 3.208-.371 4.702-1.118l59.333-29.667c3.58-1.79 5.804-5.389 5.804-9.391 0-4.003-2.224-7.602-5.804-9.392zm-.196 61.444v-44.771l44.771 22.385z"/><path d="m409.848 202.597c0-.001-.001-.001 0 0l-29.814-21.317c-3.214-2.297-7.394-2.603-10.909-.796-3.515 1.808-5.698 5.386-5.698 9.337v43.238c0 3.981 2.207 7.572 5.76 9.369 1.508.763 3.132 1.139 4.749 1.139 2.19 0 4.366-.692 6.211-2.049l29.813-21.921c2.702-1.986 4.303-5.174 4.281-8.528s-1.665-6.521-4.393-8.472zm-31.421 21.567v-25.594l17.647 12.618z"/><path d="m142.875 180.483c-3.514-1.807-7.694-1.502-10.909.796l-29.813 21.316v.001c-2.729 1.951-4.37 5.118-4.392 8.472s1.579 6.542 4.28 8.528l29.813 21.921c1.846 1.357 4.021 2.049 6.211 2.049 1.616 0 3.241-.376 4.749-1.139 3.553-1.797 5.76-5.388 5.76-9.369v-43.238c-.001-3.951-2.184-7.529-5.699-9.337zm-9.302 43.681-17.647-12.976 17.647-12.618z"/><path d="m108.082 441.319h85.417c5.171 5.243 12.351 8.5 20.279 8.5s15.108-3.257 20.279-8.5h218.498c11.028 0 20-8.972 20-20s-8.972-20-20-20h-64.555c-4.142 0-7.5 3.358-7.5 7.5s3.358 7.5 7.5 7.5h64.556c2.757 0 5 2.243 5 5s-2.243 5-5 5h-210.726c.289-1.625.448-3.294.448-5s-.159-3.375-.448-5h111.17c4.142 0 7.5-3.358 7.5-7.5s-3.358-7.5-7.5-7.5h-118.943c-5.171-5.243-12.351-8.5-20.279-8.5s-15.108 3.257-20.279 8.5h-85.417c-10.011 0-18.156 8.972-18.156 20s8.144 20 18.156 20zm119.196-20c0 7.444-6.056 13.5-13.5 13.5s-13.5-6.056-13.5-13.5 6.056-13.5 13.5-13.5 13.5 6.056 13.5 13.5zm-119.196-5h77.644c-.289 1.625-.448 3.294-.448 5s.159 3.375.448 5h-77.644c-1.49 0-3.156-2.139-3.156-5 0-2.862 1.666-5 3.156-5z"/><path d="m46.944 438.819c4.142 0 7.5-3.358 7.5-7.5v-20c0-4.142-3.358-7.5-7.5-7.5s-7.5 3.358-7.5 7.5v20c0 4.142 3.358 7.5 7.5 7.5z"/><path d="m67.759 438.819c4.142 0 7.5-3.358 7.5-7.5v-20c0-4.142-3.358-7.5-7.5-7.5s-7.5 3.358-7.5 7.5v20c0 4.142 3.358 7.5 7.5 7.5z"/><circle cx="392.5" cy="108.5" r="7.5"/><circle cx="415.5" cy="108.5" r="7.5"/><circle cx="438.5" cy="108.5" r="7.5"/><path d="m102 268.5h-33c-5.79 0-10.5 4.71-10.5 10.5v33c0 5.79 4.71 10.5 10.5 10.5h33c5.79 0 10.5-4.71 10.5-10.5v-33c0-5.79-4.71-10.5-10.5-10.5zm-4.5 39h-24v-24h24z"/></g></g></svg>